<svg width="33" height="33" viewBox="0 0 33 33" fill="none" xmlns="http://www.w3.org/2000/svg">
<g clip-path="url(#clip0_2_61)">
<path d="M27.9365 5.9958C25.7967 5.01378 23.5388 4.31289 21.219 3.91061C21.198 3.90707 21.1764 3.91013 21.1572 3.91936C21.138 3.9286 21.1221 3.94355 21.1117 3.96217C20.8209 4.4778 20.4992 5.15224 20.2744 5.68024C17.7738 5.30075 15.2303 5.30075 12.7297 5.68024C12.479 5.09205 12.1953 4.51846 11.88 3.96217C11.8694 3.94376 11.8535 3.92897 11.8343 3.91977C11.8152 3.91057 11.7937 3.90737 11.7727 3.91061C9.45242 4.31074 7.19398 5.01199 5.05517 5.9958C5.03687 6.00278 5.02156 6.01591 5.01186 6.03292C0.734232 12.4246 -0.43933 18.6595 0.136107 24.8161C0.13817 24.845 0.156732 24.8739 0.17942 24.8924C2.67035 26.7376 5.45651 28.1463 8.41911 29.0587C8.44002 29.0653 8.4625 29.065 8.48327 29.058C8.50404 29.0509 8.52202 29.0375 8.53461 29.0195C9.16986 28.1532 9.73498 27.2395 10.2217 26.2784C10.2319 26.2586 10.2354 26.2361 10.2316 26.2142C10.2279 26.1922 10.2172 26.1721 10.2011 26.1567C10.1904 26.1467 10.1778 26.1389 10.164 26.134C9.27538 25.7925 8.41477 25.3822 7.58998 24.9069C7.56694 24.8938 7.54981 24.8724 7.54213 24.847C7.53445 24.8217 7.53682 24.7944 7.54873 24.7707C7.55575 24.7554 7.56636 24.7419 7.57967 24.7315C7.75292 24.6016 7.92617 24.4655 8.09117 24.3294C8.10575 24.3176 8.12323 24.3101 8.14176 24.3076C8.16029 24.305 8.17916 24.3076 8.19636 24.3149C13.598 26.7817 19.4452 26.7817 24.7809 24.3149C24.7987 24.3072 24.8183 24.3045 24.8376 24.307C24.8568 24.3096 24.875 24.3173 24.8902 24.3294C25.0552 24.4655 25.2285 24.6016 25.4017 24.7315C25.4158 24.7418 25.427 24.7554 25.4346 24.7711C25.4421 24.7868 25.4456 24.8041 25.4447 24.8214C25.4439 24.8388 25.4388 24.8557 25.4299 24.8706C25.4209 24.8855 25.4084 24.898 25.3935 24.9069C24.5706 25.3866 23.7089 25.7964 22.8174 26.132C22.8032 26.1371 22.7903 26.1453 22.7796 26.156C22.7689 26.1667 22.7607 26.1796 22.7555 26.1939C22.7508 26.2076 22.7489 26.2222 22.7499 26.2368C22.751 26.2513 22.755 26.2655 22.7617 26.2784C23.2567 27.2375 23.8239 28.1532 24.4468 29.0195C24.4594 29.0375 24.4774 29.0509 24.4981 29.058C24.5189 29.065 24.5414 29.0653 24.5623 29.0587C27.5298 28.1492 30.3205 26.7402 32.8144 24.8924C32.8268 24.8838 32.8372 24.8724 32.8447 24.8592C32.8522 24.846 32.8566 24.8313 32.8577 24.8161C33.5465 17.6984 31.7047 11.5151 27.9778 6.03499C27.974 6.02594 27.9684 6.01777 27.9613 6.01102C27.9542 6.00427 27.9458 5.99909 27.9365 5.9958V5.9958ZM11.0282 21.0665C9.40086 21.0665 8.06229 19.5732 8.06229 17.7417C8.06229 15.9082 9.37611 14.4149 11.0282 14.4149C12.6926 14.4149 14.0188 15.9205 13.994 17.7417C13.994 19.5732 12.6802 21.0665 11.0282 21.0665ZM21.9924 21.0665C20.3672 21.0665 19.0265 19.5732 19.0265 17.7417C19.0265 15.9082 20.3404 14.4149 21.9924 14.4149C23.6569 14.4149 24.9851 15.9205 24.9583 17.7417C24.9583 19.5732 23.6569 21.0665 21.9924 21.0665Z" fill="white"/>
</g>
<defs>
<clipPath id="clip0_2_61">
<rect width="33" height="33" fill="white"/>
</clipPath>
</defs>
</svg>
