<svg width="100" height="100" viewBox="0 0 100 100" fill="none" xmlns="http://www.w3.org/2000/svg">
<rect width="100" height="100" fill="#BADBFF"/>
<path d="M40.2769 73.0757C61.0325 73.0757 72.3866 55.3446 72.3866 39.9951C72.3866 39.4989 72.3866 38.9957 72.3659 38.4995C74.5765 36.8497 76.4843 34.8071 78 32.4675C75.9351 33.4061 73.747 34.0247 71.5066 34.3033C73.8665 32.8489 75.634 30.5606 76.4806 27.8637C74.2634 29.218 71.8366 30.1687 69.3066 30.6741C67.6056 28.8065 65.3548 27.5692 62.9028 27.154C60.4508 26.7388 57.9344 27.1688 55.7434 28.3773C53.5523 29.5859 51.809 31.5057 50.7834 33.8392C49.7578 36.1728 49.5072 38.7899 50.0703 41.2852C45.5835 41.0532 41.1941 39.8515 37.1867 37.7579C33.1794 35.6643 29.6436 32.7256 26.8088 29.1325C25.3696 31.6951 24.9304 34.7265 25.5803 37.6109C26.2303 40.4953 27.9206 43.0166 30.3081 44.6627C28.519 44.6 26.7693 44.1047 25.2 43.2167V43.3762C25.2031 46.0608 26.1051 48.6619 27.7536 50.7399C29.4021 52.818 31.696 54.2455 34.2475 54.7811C33.279 55.0561 32.2786 55.1933 31.2741 55.1886C30.5659 55.1909 29.8591 55.1232 29.1634 54.9866C29.8846 57.2976 31.2888 59.3181 33.1793 60.7652C35.0698 62.2123 37.352 63.0135 39.7063 63.0565C35.7069 66.2951 30.7667 68.0516 25.6812 68.0431C24.7852 68.047 23.8897 67.9937 23 67.8836C28.1615 71.2762 34.1557 73.0776 40.2769 73.0757Z" fill="white"/>
</svg>
