<svg width="100" height="100" viewBox="0 0 100 100" fill="none" xmlns="http://www.w3.org/2000/svg">
<path d="M0 0H100V100H0V0Z" fill="#E8BEFF"/>
<path d="M68.5615 32.4421C64.9952 30.8222 61.2319 29.666 57.3656 29.0024C57.3306 28.9965 57.2946 29.0016 57.2626 29.0168C57.2306 29.032 57.2041 29.0567 57.1869 29.0874C56.7022 29.938 56.1659 31.0506 55.7912 31.9216C51.6236 31.2956 47.3844 31.2956 43.2168 31.9216C42.7989 30.9513 42.3261 30.0051 41.8006 29.0874C41.783 29.057 41.7564 29.0327 41.7245 29.0175C41.6926 29.0023 41.6568 28.997 41.6218 29.0024C37.7547 29.6624 33.9906 30.8192 30.4259 32.4421C30.3954 32.4537 30.3699 32.4753 30.3537 32.5034C23.2243 43.0473 21.2684 53.3326 22.2275 63.4886C22.2309 63.5362 22.2618 63.5839 22.2996 63.6145C26.4512 66.6583 31.0948 68.9822 36.0325 70.4872C36.0673 70.4981 36.1048 70.4977 36.1394 70.4861C36.174 70.4745 36.204 70.4522 36.225 70.4226C37.2837 68.9936 38.2256 67.4864 39.0368 65.9009C39.0538 65.8682 39.0595 65.831 39.0533 65.7948C39.0471 65.7587 39.0293 65.7254 39.0025 65.7001C38.9847 65.6835 38.9636 65.6708 38.9406 65.6627C37.4596 65.0993 36.0252 64.4225 34.6506 63.6383C34.6122 63.6168 34.5836 63.5814 34.5708 63.5396C34.558 63.4978 34.562 63.4528 34.5818 63.4137C34.5935 63.3884 34.6112 63.3662 34.6334 63.3491C34.9222 63.1348 35.2109 62.9102 35.4859 62.6856C35.5102 62.6663 35.5393 62.6539 35.5702 62.6497C35.6011 62.6455 35.6326 62.6497 35.6612 62.6618C44.664 66.731 54.4094 66.731 63.3022 62.6618C63.3319 62.6491 63.3645 62.6446 63.3966 62.6488C63.4287 62.653 63.459 62.6657 63.4844 62.6856C63.7594 62.9102 64.0481 63.1348 64.3369 63.3491C64.3603 63.366 64.3791 63.3884 64.3916 63.4143C64.4041 63.4402 64.4099 63.4687 64.4085 63.4974C64.4072 63.526 64.3987 63.5539 64.3838 63.5785C64.3688 63.6031 64.348 63.6236 64.3231 63.6383C62.9516 64.4297 61.5154 65.1057 60.0297 65.6593C60.006 65.6678 59.9844 65.6813 59.9666 65.699C59.9488 65.7166 59.9351 65.7379 59.9265 65.7614C59.9186 65.7841 59.9154 65.8082 59.9172 65.8322C59.919 65.8562 59.9256 65.8795 59.9369 65.9009C60.7619 67.483 61.7072 68.9936 62.7453 70.4226C62.7663 70.4522 62.7962 70.4745 62.8309 70.4861C62.8655 70.4977 62.9029 70.4981 62.9378 70.4872C67.8837 68.9869 72.5349 66.6627 76.6912 63.6145C76.7121 63.6002 76.7294 63.5815 76.7419 63.5597C76.7544 63.5379 76.7617 63.5136 76.7634 63.4886C77.9116 51.7471 74.8419 41.5468 68.6303 32.5068C68.624 32.4919 68.6147 32.4784 68.6028 32.4673C68.591 32.4561 68.5769 32.4476 68.5615 32.4421ZM40.3809 57.3031C37.6687 57.3031 35.4378 54.8398 35.4378 51.8185C35.4378 48.7938 37.6275 46.3305 40.3809 46.3305C43.155 46.3305 45.3653 48.8143 45.324 51.8185C45.324 54.8398 43.1343 57.3031 40.3809 57.3031ZM58.6547 57.3031C55.9459 57.3031 53.7115 54.8398 53.7115 51.8185C53.7115 48.7938 55.9012 46.3305 58.6547 46.3305C61.4287 46.3305 63.6425 48.8143 63.5978 51.8185C63.5978 54.8398 61.4287 57.3031 58.6547 57.3031Z" fill="white"/>
</svg>
